<svg width="19" height="19" viewBox="0 0 19 19" fill="none" xmlns="http://www.w3.org/2000/svg">
<g clip-path="url(#clip0_126_31)">
<path d="M17.539 12.8056C17.0089 14.0594 16.1797 15.1641 15.1239 16.0234C14.0682 16.8826 12.818 17.4702 11.4827 17.7346C10.1474 17.9991 8.7677 17.9324 7.46413 17.5405C6.16057 17.1485 4.97287 16.4432 4.00486 15.4862C3.03686 14.5292 2.31802 13.3496 1.91121 12.0506C1.50439 10.7516 1.42198 9.37271 1.67118 8.0345C1.92037 6.69629 2.49359 5.43949 3.34072 4.37399C4.18784 3.3085 5.28308 2.46673 6.53068 1.9223" stroke="white" stroke-width="1.5" stroke-linecap="round" stroke-linejoin="round"/>
<path d="M18.1973 9.56397C18.1973 8.46962 17.9818 7.38599 17.563 6.37494C17.1442 5.36389 16.5304 4.44523 15.7566 3.67141C14.9827 2.89759 14.0641 2.28376 13.053 1.86497C12.042 1.44618 10.9584 1.23064 9.86401 1.23064V9.56397H18.1973Z" stroke="white" stroke-width="1.5" stroke-linecap="round" stroke-linejoin="round"/>
</g>
<defs>
<clipPath id="clip0_126_31">
<rect width="19" height="19" fill="white"/>
</clipPath>
</defs>
</svg>
