<svg width="16" height="16" viewBox="0 0 16 16" fill="none" xmlns="http://www.w3.org/2000/svg">
<path d="M13.6 15.2L8.8 10.4L10.4 8.8L16 14.4L16 15.2M8 7.6C7.89391 7.6 7.79217 7.64214 7.71716 7.71716C7.64214 7.79217 7.6 7.89391 7.6 8C7.6 8.10609 7.64214 8.20783 7.71716 8.28284C7.79217 8.35786 7.89391 8.4 8 8.4C8.10609 8.4 8.20783 8.35786 8.28284 8.28284C8.35786 8.20783 8.4 8.10609 8.4 8C8.4 7.89391 8.35786 7.79217 8.28284 7.71716C8.20783 7.64214 8.10609 7.6 8 7.6ZM3.2 1.6C2.77565 1.6 2.36869 1.76857 2.06863 2.06863C1.76857 2.36869 1.6 2.77565 1.6 3.2C1.6 3.62435 1.76857 4.03131 2.06863 4.33137C2.36869 4.63143 2.77565 4.8 3.2 4.8C3.62435 4.8 4.03131 4.63143 4.33137 4.33137C4.63143 4.03131 4.8 3.62435 4.8 3.2C4.8 2.77565 4.63143 2.36869 4.33137 2.06863C4.03131 1.76857 3.62435 1.6 3.2 1.6ZM3.2 11.2C2.77565 11.2 2.36869 11.3686 2.06863 11.6686C1.76857 11.9687 1.6 12.3757 1.6 12.8C1.6 13.2243 1.76857 13.6313 2.06863 13.9314C2.36869 14.2314 2.77565 14.4 3.2 14.4C3.62435 14.4 4.03131 14.2314 4.33137 13.9314C4.63143 13.6313 4.8 13.2243 4.8 12.8C4.8 12.3757 4.63143 11.9687 4.33137 11.6686C4.03131 11.3686 3.62435 11.2 3.2 11.2ZM6.112 11.488C6.296 11.888 6.4 12.328 6.4 12.8C6.4 13.6487 6.06286 14.4626 5.46274 15.0627C4.86263 15.6629 4.04869 16 3.2 16C2.35131 16 1.53737 15.6629 0.937258 15.0627C0.337142 14.4626 -1.02779e-07 13.6487 -1.39876e-07 12.8C-1.76974e-07 11.9513 0.337142 11.1374 0.937258 10.5373C1.53737 9.93714 2.35131 9.6 3.2 9.6C3.672 9.6 4.112 9.704 4.512 9.888L6.4 8L4.512 6.112C4.112 6.296 3.672 6.4 3.2 6.4C2.35131 6.4 1.53737 6.06286 0.937258 5.46274C0.337141 4.86263 -5.22408e-07 4.04869 -5.59506e-07 3.2C-5.96603e-07 2.35131 0.337141 1.53738 0.937258 0.93726C1.53737 0.337144 2.35131 8.50895e-07 3.2 8.13798e-07C4.04869 7.767e-07 4.86262 0.337144 5.46274 0.937259C6.06286 1.53738 6.4 2.35131 6.4 3.2C6.4 3.672 6.296 4.112 6.112 4.512L8 6.4L13.6 0.800001L16 0.8L16 1.6L6.112 11.488Z" fill="black"/>
</svg>
