<svg width="592" height="592" viewBox="0 0 592 592" fill="none" xmlns="http://www.w3.org/2000/svg">
<path d="M540.696 199.905C540.696 199.905 463.593 51.922 347.531 22.4747C245.08 -3.51884 142.134 33.937 114.985 139.765C105.312 177.473 91.3787 218.776 71.7741 251.807C49.7919 288.844 16.6304 317.793 29.2424 395.991C41.8544 474.19 126.963 554.194 195.167 562.71C263.371 571.226 335.314 517.436 395.329 467.807C455.345 418.178 630.379 386.644 540.696 199.905Z" fill="#003049"/>
<path opacity="0.7" d="M540.696 199.905C540.696 199.905 463.593 51.922 347.531 22.4747C245.08 -3.51884 142.134 33.937 114.985 139.765C105.312 177.473 91.3787 218.776 71.7741 251.807C49.7919 288.844 16.6304 317.793 29.2424 395.991C41.8544 474.19 126.963 554.194 195.167 562.71C263.371 571.226 335.314 517.436 395.329 467.807C455.345 418.178 630.379 386.644 540.696 199.905Z" fill="white"/>
<g opacity="0.3">
<path d="M428.188 509.689V452.296" stroke="black" stroke-width="1.184" stroke-miterlimit="10"/>
<path d="M423.813 509.689V452.55" stroke="black" stroke-width="1.184" stroke-miterlimit="10"/>
<path d="M447.155 174.332C447.155 174.421 447.142 174.497 447.131 174.586C447.017 176.015 446.561 183.171 448.357 187.116C448.774 188.039 450.027 188.81 451.733 189.442" stroke="black" stroke-width="1.184" stroke-miterlimit="10"/>
<path d="M471.559 214.958V214.946" stroke="black" stroke-width="1.184" stroke-miterlimit="10"/>
<path d="M401.445 187.394C401.534 187.305 401.596 187.205 401.647 187.116C403.241 184.322 404.036 174.332 404.036 174.332" stroke="black" stroke-width="1.184" stroke-miterlimit="10"/>
<path d="M480.284 446.29L480.297 446.606C480.297 446.606 457.258 450.513 428.189 452.296C426.748 452.385 425.293 452.474 423.814 452.55C423.485 452.563 423.144 452.588 422.803 452.601C391.267 454.194 369.709 446.607 369.709 446.607L369.809 445.027" stroke="black" stroke-width="1.184" stroke-miterlimit="10"/>
<path d="M470.788 194.45V194.463L470.838 195.726" stroke="black" stroke-width="1.184" stroke-miterlimit="10"/>
<path d="M355.622 432.166L355.419 436.743L355.406 436.997C355.406 436.997 355.406 436.997 355.393 436.997C354.988 437.01 345.909 437.351 341.156 436.618C336.275 435.872 332.532 433.621 332.532 433.621V428.538" stroke="black" stroke-width="1.184" stroke-miterlimit="10"/>
<path d="M345.278 201.151C345.278 201.151 345.265 201.189 345.253 201.265C344.861 202.807 340.727 219.776 339.652 240.146C338.527 261.515 332.912 409.241 331.786 415.248C330.66 421.241 331.028 427.994 331.028 427.994C331.028 427.994 331.584 428.208 332.532 428.537C335.364 429.523 341.623 431.559 346.403 432.115C349.893 432.532 353.282 432.38 355.62 432.166C355.709 432.153 355.785 432.141 355.861 432.141" stroke="black" stroke-width="1.184" stroke-miterlimit="10"/>
<path d="M360.224 386.065C360.224 386.04 360.224 386.014 360.224 385.989C361.375 350.735 362.829 307.214 363.271 302.383C363.512 299.791 363.815 295.896 364.144 291.774V291.761" stroke="black" stroke-width="1.184" stroke-miterlimit="10"/>
<path d="M404.521 300.888C404.521 302.761 397.773 446.368 397.773 446.368C397.773 446.368 377.638 447.387 369.706 444.998C361.775 442.621 355.399 436.99 355.399 436.99C355.399 436.99 367.722 309.35 366.977 305.231C366.222 301.101 350.908 230.018 347.534 218.023C344.159 206.028 345.277 201.152 345.277 201.152C345.277 201.152 366.847 194.82 383.313 190.208C392.964 187.503 400.862 185.399 401.652 185.497C401.652 185.497 395.145 245.388 398.903 269.39C402.648 293.383 404.521 299.015 404.521 300.888Z" stroke="black" stroke-width="1.184" stroke-miterlimit="10"/>
<path d="M404.521 300.888C404.521 300.888 394.399 283.261 386.522 262.271C378.646 241.271 373.77 213.894 373.77 213.894L386.522 199.653L379.773 195.523L383.312 190.211C392.963 187.505 400.861 185.401 401.651 185.5C401.651 185.5 395.143 245.39 398.901 269.392C402.648 293.383 404.521 299.015 404.521 300.888Z" stroke="black" stroke-width="1.184" stroke-miterlimit="10"/>
<path d="M501.641 439.247C501.641 439.247 501.578 439.272 501.438 439.336C499.997 439.955 490.767 443.863 480.283 446.291C475.706 447.353 470.901 448.137 466.387 448.239C450.644 448.618 434.51 446.747 434.51 446.747C434.51 446.747 425.14 306.507 424.394 303.522C423.648 300.512 426.266 294.14 432.638 276.147C433.169 274.629 433.763 272.745 434.37 270.558C434.484 270.204 434.585 269.825 434.686 269.445C434.876 268.762 435.078 268.042 435.268 267.295C436.001 264.513 436.785 261.39 437.581 258.04C437.847 256.94 438.113 255.814 438.378 254.664C438.986 252.021 439.605 249.265 440.237 246.445C440.426 245.585 440.616 244.726 440.794 243.865C441.337 241.387 441.882 238.858 442.412 236.329C442.652 235.204 442.893 234.078 443.133 232.953C444.284 227.414 445.409 221.902 446.446 216.718C446.497 216.415 446.56 216.124 446.624 215.834C446.801 214.923 446.978 214.039 447.155 213.153C447.256 212.648 447.358 212.129 447.458 211.623C448.812 204.795 449.962 198.802 450.784 194.465C450.835 194.187 450.886 193.921 450.936 193.655C451.265 191.923 451.53 190.507 451.733 189.445C451.998 188.054 452.137 187.283 452.137 187.283C453.503 187.915 460.533 189.066 469.018 190.368C484.191 192.708 504.018 195.578 504.258 197.032C504.474 198.359 500.137 235.837 496.546 266.211L496.407 267.386C493.992 287.807 491.968 304.713 491.968 304.713L499.201 405.148C499.201 405.173 499.201 405.199 499.201 405.224" stroke="black" stroke-width="1.184" stroke-miterlimit="10"/>
<path d="M473.515 208.647C473.515 208.647 462.636 246.518 447.64 266.762C432.642 287.018 424.393 303.516 424.393 303.516C423.648 300.515 426.266 294.139 432.642 276.14C439.018 258.14 452.141 187.273 452.141 187.273C453.499 187.909 460.532 189.059 469.012 190.362L471.258 195.522L460.391 200.78L473.515 208.647Z" stroke="black" stroke-width="1.184" stroke-miterlimit="10"/>
<path d="M501.425 439.247L501.438 439.336L501.628 444.862C501.628 444.862 507.634 446.367 514.386 447.113C521.126 447.872 530.508 444.862 530.508 444.862V437.756" stroke="black" stroke-width="1.184" stroke-miterlimit="10"/>
<path d="M504.254 197.023C504.254 197.023 512.88 200.026 517.004 216.899C521.128 233.772 537.252 313.636 537.252 324.134C537.252 334.633 533.502 437.368 533.502 437.368C533.502 437.368 520.375 439.238 511.005 439.243C501.635 439.247 499.006 439.243 499.006 439.243C499.006 439.243 499.381 360.503 499.756 354.505C500.131 348.506 494.027 288.705 494.027 288.705L504.254 197.023Z" stroke="black" stroke-width="1.184" stroke-miterlimit="10"/>
<path d="M428.188 169.59C438.872 169.869 447.154 171.879 447.154 174.332C447.154 174.421 447.141 174.497 447.129 174.586C446.548 177.115 437.14 179.125 425.596 179.125C413.698 179.125 404.036 176.988 404.036 174.333C404.036 171.829 412.748 169.769 423.813 169.578" stroke="black" stroke-width="1.184" stroke-miterlimit="10"/>
<path d="M426 176.928C424.79 176.928 423.809 175.946 423.809 174.737V151.981C423.809 150.771 424.791 149.79 426 149.79C427.21 149.79 428.191 150.771 428.191 151.981V174.737C428.191 175.946 427.21 176.928 426 176.928Z" stroke="black" stroke-width="1.184" stroke-miterlimit="10"/>
</g>
<g opacity="0.3">
<path d="M34.4248 500.709C34.5551 359.13 33.1852 216.742 35.9249 75.5036C35.9249 75.5036 40.0334 75.5036 42.6797 75.9938" stroke="black" stroke-width="1.184" stroke-miterlimit="10"/>
<path d="M328.536 493.232C328.528 495.724 328.52 498.217 328.511 500.709" stroke="black" stroke-width="1.184" stroke-miterlimit="10"/>
<path d="M50.9995 75.9938C144.109 76.6521 235.861 73.2067 328.983 76.6521C328.983 213.792 328.983 350.934 328.55 488.387" stroke="black" stroke-width="1.184" stroke-miterlimit="10"/>
<path d="M319.6 148.839V85.7677H230.482V510.086H319.6V159.89" stroke="black" stroke-width="1.184" stroke-miterlimit="10"/>
<path d="M220.299 485.961V85.7677H136.274V510.086H220.299V492.828" stroke="black" stroke-width="1.184" stroke-miterlimit="10"/>
<path d="M126.088 203.268V195.418" stroke="black" stroke-width="1.184" stroke-miterlimit="10"/>
<path d="M126.088 500.828C126.307 405.059 126.307 308.604 126.088 212.862" stroke="black" stroke-width="1.184" stroke-miterlimit="10"/>
<path d="M43.4303 476.278C43.4149 484.477 43.3842 492.674 43.3368 500.87" stroke="black" stroke-width="1.184" stroke-miterlimit="10"/>
<path d="M126.297 122.086C126.307 110.067 126.307 98.0245 126.307 85.8387C98.9184 85.8387 71.5289 85.8387 44.1406 85.8387C40.3731 212.186 43.5143 339.499 43.442 466.393" stroke="black" stroke-width="1.184" stroke-miterlimit="10"/>
<path d="M126.088 188.439C126.213 168.502 126.267 149.073 126.289 129.646" stroke="black" stroke-width="1.184" stroke-miterlimit="10"/>
</g>
<path d="M140.308 509.691V444.967H144.666V509.691" fill="white"/>
<path d="M140.308 509.691V444.967H144.666V509.691" stroke="#263238" stroke-width="1.184" stroke-miterlimit="10"/>
<path d="M120.647 176.144C120.647 176.144 119.853 186.07 118.265 188.85C116.677 191.63 101.985 195.6 101.985 195.6L86.4994 446.952C86.4994 446.952 107.942 454.496 139.311 452.908C170.679 451.321 196.489 446.952 196.489 446.952L186.959 194.011C186.959 194.011 166.708 193.217 164.723 188.849C162.737 184.481 163.532 176.142 163.532 176.142H120.647V176.144Z" fill="white" stroke="#263238" stroke-width="1.184" stroke-miterlimit="10"/>
<path d="M49.5208 424.333V434.028C49.5208 434.028 53.2504 436.266 58.0976 437.012C62.9461 437.758 72.2689 437.385 72.2689 437.385L72.6419 429.181L49.5208 424.333Z" fill="white" stroke="#263238" stroke-width="1.184" stroke-miterlimit="10"/>
<path d="M62.2003 202.813C62.2003 202.813 57.7248 220.341 56.6059 241.598C55.487 262.854 49.8938 409.788 48.775 415.754C47.6561 421.722 48.029 428.434 48.029 428.434C48.029 428.434 56.9789 431.791 63.3192 432.536C69.6583 433.282 75.6257 432.164 75.6257 432.164C75.6257 432.164 79.3553 311.708 80.1012 303.503C80.8471 295.299 82.339 274.042 82.339 274.042C82.339 274.042 74.1351 218.848 69.2866 210.644C64.4381 202.44 62.2003 202.813 62.2003 202.813Z" fill="#003049" stroke="#263238" stroke-width="1.184" stroke-miterlimit="10"/>
<path d="M121.123 302.012C121.123 303.876 114.411 446.71 114.411 446.71C114.411 446.71 94.385 447.724 86.496 445.349C78.607 442.984 72.2655 437.384 72.2655 437.384C72.2655 437.384 84.5223 310.432 83.7811 306.334C83.0293 302.227 67.7983 231.528 64.4417 219.596C61.085 207.665 62.1968 202.817 62.1968 202.817C62.1968 202.817 83.6509 196.519 100.028 191.932C109.627 189.241 117.484 187.149 118.267 187.247C118.267 187.247 111.796 246.815 115.532 270.688C119.26 294.548 121.123 300.149 121.123 302.012Z" fill="#003049" stroke="#263238" stroke-width="1.184" stroke-miterlimit="10"/>
<path d="M121.123 302.012C121.123 302.012 111.056 284.481 103.221 263.605C95.3866 242.716 90.5381 215.488 90.5381 215.488L103.221 201.324L96.509 197.216L100.029 191.932C109.628 189.241 117.485 187.149 118.269 187.247C118.269 187.247 111.797 246.815 115.534 270.688C119.26 294.548 121.123 300.149 121.123 302.012Z" fill="#003049" stroke="#263238" stroke-width="1.184" stroke-miterlimit="10"/>
<path d="M208.095 305.819L217.715 439.626C217.715 439.626 198.32 448.201 182.652 448.571C166.995 448.942 150.957 447.078 150.957 447.078C150.957 447.078 141.63 307.6 140.889 304.625C140.148 301.641 142.753 295.299 149.094 277.397C155.436 259.495 168.489 189.009 168.489 189.009C169.84 189.641 176.835 190.785 185.269 192.081C200.36 194.413 220.081 197.267 220.321 198.706C220.689 200.952 208.095 305.819 208.095 305.819Z" fill="#003049" stroke="#263238" stroke-width="1.184" stroke-miterlimit="10"/>
<path d="M189.746 210.269C189.746 210.269 178.926 247.936 164.009 268.072C149.093 288.219 140.888 304.628 140.888 304.628C140.147 301.643 142.751 295.302 149.093 277.4C155.434 259.497 168.488 189.012 168.488 189.012C169.839 189.644 176.834 190.788 185.268 192.084L187.502 197.216L176.693 202.445L189.746 210.269Z" fill="#003049" stroke="#263238" stroke-width="1.184" stroke-miterlimit="10"/>
<path d="M217.339 434.774L217.712 445.216C217.712 445.216 223.679 446.708 230.391 447.454C237.103 448.2 246.427 445.216 246.427 445.216V431.045L217.339 434.774Z" fill="white" stroke="#263238" stroke-width="1.184" stroke-miterlimit="10"/>
<path d="M220.319 198.708C220.319 198.708 228.899 201.694 233.001 218.476C237.103 235.258 253.138 314.692 253.138 325.133C253.138 335.575 249.408 437.758 249.408 437.758C249.408 437.758 236.352 439.618 227.033 439.623C217.714 439.627 215.1 439.623 215.1 439.623C215.1 439.623 215.473 361.308 215.846 355.341C216.219 349.374 210.148 289.895 210.148 289.895L220.319 198.708Z" fill="#003049" stroke="#263238" stroke-width="1.184" stroke-miterlimit="10"/>
<path d="M163.532 176.144C163.532 178.776 153.932 180.908 142.089 180.908C130.247 180.908 120.647 178.775 120.647 176.144C120.647 173.512 130.247 171.379 142.089 171.379C153.932 171.378 163.532 173.512 163.532 176.144Z" fill="white" stroke="#263238" stroke-width="1.184" stroke-miterlimit="10"/>
<path d="M142.486 178.72C141.283 178.72 140.308 177.744 140.308 176.541V153.908C140.308 152.705 141.283 151.73 142.486 151.73C143.689 151.73 144.665 152.705 144.665 153.908V176.541C144.666 177.744 143.69 178.72 142.486 178.72Z" fill="white" stroke="#263238" stroke-width="1.184" stroke-miterlimit="10"/>
<path d="M301.785 509.325L303.374 440.186L402.246 440.584V509.691" fill="#9E9E9E"/>
<path d="M301.785 509.325L303.374 440.186L402.246 440.584V509.691" stroke="#263238" stroke-width="1.184" stroke-miterlimit="10"/>
<path d="M389.048 458.193L373.144 465.87L372.048 508.777" stroke="#263238" stroke-width="1.184" stroke-miterlimit="10"/>
<path d="M211.62 509.006C211.559 502.15 210.145 340.894 211.629 324.564C213.103 308.346 223.088 194.45 223.19 193.3L227.532 193.681C227.431 194.83 217.445 308.734 215.97 324.957C214.505 341.074 215.964 507.291 215.979 508.967" fill="white"/>
<path d="M211.62 509.006C211.559 502.15 210.145 340.894 211.629 324.564C213.103 308.346 223.088 194.45 223.19 193.3L227.532 193.681C227.431 194.83 217.445 308.734 215.97 324.957C214.505 341.074 215.964 507.291 215.979 508.967" stroke="#263238" stroke-width="1.184" stroke-miterlimit="10"/>
<path d="M227.084 199.356L224.807 199.03" stroke="#263238" stroke-width="0.592" stroke-miterlimit="10"/>
<path d="M226.515 205.394L224.238 205.069" stroke="#263238" stroke-width="0.592" stroke-miterlimit="10"/>
<path d="M225.945 211.433L223.668 211.107" stroke="#263238" stroke-width="0.592" stroke-miterlimit="10"/>
<path d="M225.377 217.471L223.099 217.146" stroke="#263238" stroke-width="0.592" stroke-miterlimit="10"/>
<path d="M224.807 223.51L222.529 223.184" stroke="#263238" stroke-width="0.592" stroke-miterlimit="10"/>
<path d="M224.238 229.548L221.961 229.222" stroke="#263238" stroke-width="0.592" stroke-miterlimit="10"/>
<path d="M223.668 235.586L221.391 235.261" stroke="#263238" stroke-width="0.592" stroke-miterlimit="10"/>
<path d="M223.099 241.625L220.822 241.299" stroke="#263238" stroke-width="0.592" stroke-miterlimit="10"/>
<path d="M222.529 247.663L220.252 247.338" stroke="#263238" stroke-width="0.592" stroke-miterlimit="10"/>
<path d="M221.961 253.702L219.683 253.376" stroke="#263238" stroke-width="0.592" stroke-miterlimit="10"/>
<path d="M221.391 259.74L219.115 259.414" stroke="#263238" stroke-width="0.592" stroke-miterlimit="10"/>
<path d="M220.822 265.778L218.545 265.453" stroke="#263238" stroke-width="0.592" stroke-miterlimit="10"/>
<path d="M220.252 271.817L217.975 271.492" stroke="#263238" stroke-width="0.592" stroke-miterlimit="10"/>
<path d="M219.683 277.855L217.406 277.53" stroke="#263238" stroke-width="0.592" stroke-miterlimit="10"/>
<path d="M219.115 283.894L216.837 283.569" stroke="#263238" stroke-width="0.592" stroke-miterlimit="10"/>
<path d="M218.545 289.932L216.268 289.606" stroke="#263238" stroke-width="0.592" stroke-miterlimit="10"/>
<path d="M217.976 295.97L215.699 295.646" stroke="#263238" stroke-width="0.592" stroke-miterlimit="10"/>
<path d="M214.941 341.134L212.664 340.81" stroke="#263238" stroke-width="0.592" stroke-miterlimit="10"/>
<path d="M214.988 347.425L212.712 347.099" stroke="#263238" stroke-width="0.592" stroke-miterlimit="10"/>
<path d="M215.036 353.714L212.759 353.388" stroke="#263238" stroke-width="0.592" stroke-miterlimit="10"/>
<path d="M215.083 360.004L212.806 359.678" stroke="#263238" stroke-width="0.592" stroke-miterlimit="10"/>
<path d="M215.132 366.293L212.854 365.968" stroke="#263238" stroke-width="0.592" stroke-miterlimit="10"/>
<path d="M215.179 372.583L212.901 372.258" stroke="#263238" stroke-width="0.592" stroke-miterlimit="10"/>
<path d="M215.226 378.873L212.949 378.547" stroke="#263238" stroke-width="0.592" stroke-miterlimit="10"/>
<path d="M215.274 385.162L212.997 384.837" stroke="#263238" stroke-width="0.592" stroke-miterlimit="10"/>
<path d="M215.321 391.453L213.044 391.127" stroke="#263238" stroke-width="0.592" stroke-miterlimit="10"/>
<path d="M215.368 397.742L213.092 397.417" stroke="#263238" stroke-width="0.592" stroke-miterlimit="10"/>
<path d="M215.416 404.032L213.139 403.706" stroke="#263238" stroke-width="0.592" stroke-miterlimit="10"/>
<path d="M215.464 410.321L213.186 409.997" stroke="#263238" stroke-width="0.592" stroke-miterlimit="10"/>
<path d="M215.512 416.612L213.234 416.286" stroke="#263238" stroke-width="0.592" stroke-miterlimit="10"/>
<path d="M215.559 422.901L213.282 422.576" stroke="#263238" stroke-width="0.592" stroke-miterlimit="10"/>
<path d="M215.606 429.191L213.329 428.865" stroke="#263238" stroke-width="0.592" stroke-miterlimit="10"/>
<path d="M215.654 435.481L213.377 435.156" stroke="#263238" stroke-width="0.592" stroke-miterlimit="10"/>
<path d="M215.701 441.771L213.424 441.445" stroke="#263238" stroke-width="0.592" stroke-miterlimit="10"/>
<path d="M215.749 448.06L213.472 447.734" stroke="#263238" stroke-width="0.592" stroke-miterlimit="10"/>
<path d="M215.797 454.349L213.519 454.025" stroke="#263238" stroke-width="0.592" stroke-miterlimit="10"/>
<path d="M215.844 460.64L213.568 460.314" stroke="#263238" stroke-width="0.592" stroke-miterlimit="10"/>
<path d="M215.892 466.929L213.615 466.604" stroke="#263238" stroke-width="0.592" stroke-miterlimit="10"/>
<path d="M215.939 473.219L213.662 472.894" stroke="#263238" stroke-width="0.592" stroke-miterlimit="10"/>
<path d="M215.987 479.509L213.71 479.184" stroke="#263238" stroke-width="0.592" stroke-miterlimit="10"/>
<path d="M216.034 485.799L213.757 485.473" stroke="#263238" stroke-width="0.592" stroke-miterlimit="10"/>
<path d="M216.081 492.088L213.804 491.763" stroke="#263238" stroke-width="0.592" stroke-miterlimit="10"/>
<path d="M216.13 498.378L213.852 498.053" stroke="#263238" stroke-width="0.592" stroke-miterlimit="10"/>
<path d="M216.177 504.668L213.899 504.343" stroke="#263238" stroke-width="0.592" stroke-miterlimit="10"/>
<path d="M293.453 261.218L316.156 293.356L338.86 251.488L311.733 237.335C311.733 237.335 296.697 242.347 293.453 261.218Z" fill="white" stroke="#263238" stroke-width="1.184" stroke-miterlimit="10"/>
<path d="M306.313 268.236C310.664 270.543 316.838 272.977 323.291 272.803" stroke="#263238" stroke-width="1.184" stroke-miterlimit="10"/>
<path d="M300.112 264.314C300.112 264.314 301.331 265.281 303.399 266.563" stroke="#263238" stroke-width="1.184" stroke-miterlimit="10"/>
<path d="M301.745 260.397C301.745 260.397 306.642 261.703 313.498 261.376" stroke="#263238" stroke-width="1.184" stroke-miterlimit="10"/>
<path d="M223.19 193.3L229.787 200.809C229.787 200.809 235.381 202.588 240.465 198.267C245.549 193.944 223.19 193.3 223.19 193.3Z" fill="white" stroke="#263238" stroke-width="1.184" stroke-miterlimit="10"/>
<path d="M222.099 190.748C222.099 190.748 222.689 186.326 223.868 185.44C225.048 184.556 239.496 178.364 242.149 178.658C244.803 178.953 246.572 181.312 246.572 181.312L260.429 197.529L306.132 237.039L288.145 251.191C288.145 251.191 248.34 204.899 246.572 203.131C244.803 201.362 236.841 196.938 236.841 196.938L222.099 190.748Z" fill="white" stroke="#263238" stroke-width="1.184" stroke-miterlimit="10"/>
<path d="M243.034 187.505C243.034 187.505 229.176 189.864 225.932 189.274C222.689 188.685 216.792 186.621 215.318 190.159C213.844 193.696 221.51 196.351 225.048 196.351C228.586 196.351 230.65 196.941 230.65 196.941C230.65 196.941 236.843 199.299 241.56 200.773C246.277 202.247 252.469 202.247 252.469 202.247" fill="white"/>
<path d="M243.034 187.505C243.034 187.505 229.176 189.864 225.932 189.274C222.689 188.685 216.792 186.621 215.318 190.159C213.844 193.696 221.51 196.351 225.048 196.351C228.586 196.351 230.65 196.941 230.65 196.941C230.65 196.941 236.843 199.299 241.56 200.773C246.277 202.247 252.469 202.247 252.469 202.247" stroke="#263238" stroke-width="1.184" stroke-miterlimit="10"/>
<path d="M305.542 229.964C305.542 229.964 300.53 228.49 299.055 229.669C297.581 230.848 281.069 250.603 281.364 252.372C281.658 254.141 293.157 267.115 294.042 267.115C294.926 267.115 302.887 248.834 306.13 246.476C309.373 244.117 316.45 238.22 316.45 238.22L305.542 229.964Z" fill="white" stroke="#263238" stroke-width="1.184" stroke-miterlimit="10"/>
<path d="M332.374 261.218C332.374 261.218 312.913 286.279 309.67 296.009C306.427 305.74 299.94 374.735 301.12 384.76C302.299 394.785 297.287 442.256 297.287 442.256C297.287 442.256 316.158 454.934 350.949 454.639C385.741 454.345 406.677 445.499 406.677 445.499C406.677 445.499 400.19 389.773 400.19 388.887C400.19 388.002 407.266 311.046 402.548 283.035C397.83 255.024 387.215 243.525 387.215 243.525L332.374 261.218Z" fill="#263238" stroke="#263238" stroke-width="1.184" stroke-miterlimit="10"/>
<path d="M319.005 153.599C319.005 153.599 310.833 162.291 309.376 167.511C307.918 172.733 308.402 189.303 309.629 192.127C310.856 194.95 313.462 199.39 310.471 204.201C307.48 209.012 304.21 211.478 305.297 213.13C306.384 214.782 313.312 218.115 313.312 218.115C313.312 218.115 310.976 223.441 313.701 226.383C316.426 229.325 316.426 229.325 316.426 229.325L317.966 234.784C317.966 234.784 314.423 239.955 317.665 242.243C320.905 244.53 324.956 246.128 326.419 245.952C327.883 245.778 332.101 243.793 332.101 243.793L340.417 253.79L380.991 232.933L374.14 222.761C374.14 222.761 388.448 203.244 389.343 188.292C390.238 173.339 379.296 156.23 371.246 150.952C363.196 145.673 350.187 143.656 341.696 144.666C333.207 145.676 319.005 153.599 319.005 153.599Z" fill="white" stroke="#263238" stroke-width="1.184" stroke-miterlimit="10"/>
<path d="M371.247 150.952C363.197 145.673 350.188 143.656 341.698 144.666C333.207 145.676 319.005 153.599 319.005 153.599C319.005 153.599 318.187 154.471 317.024 155.824L317.2 155.893C317.2 155.893 320.866 154.269 332.871 152.841C344.876 151.415 345.962 153.066 341.367 156.879C336.772 160.691 325.247 173.642 326.013 180.083C326.779 186.524 332.962 186.086 334.085 188.031C335.207 189.976 335.163 197.108 337.903 197.672C340.643 198.237 342.831 199.165 344.568 196.286C346.303 193.408 353.192 191.401 355.079 199.787C356.967 208.173 349.967 216.725 349.967 216.725C349.967 216.725 357.258 220.61 363.65 221.928C367.471 222.716 371.287 222.641 374.703 221.97C377.347 218.195 388.556 201.473 389.344 188.29C390.239 173.339 379.298 156.23 371.247 150.952Z" fill="#263238" stroke="#263238" stroke-width="1.184" stroke-miterlimit="10"/>
<path d="M349.968 216.727L346.816 217.695" stroke="#263238" stroke-width="1.184" stroke-miterlimit="10"/>
<path d="M332.103 243.793L343.669 236.182L338.313 251.071L332.103 243.793Z" fill="#263238" stroke="#263238" stroke-width="1.184" stroke-miterlimit="10"/>
<path d="M316.983 204.02C316.983 204.02 318.432 206.223 322.155 207.562" stroke="#263238" stroke-width="1.184" stroke-miterlimit="10"/>
<path d="M315.005 192.379C315.005 192.379 318.79 189.257 322.826 193.23" stroke="#263238" stroke-width="1.184" stroke-miterlimit="10"/>
<path d="M318.956 198.144C319.129 199.599 318.614 200.856 317.806 200.953C316.997 201.049 316.201 199.947 316.028 198.492C315.856 197.037 316.371 195.779 317.179 195.682C317.988 195.586 318.784 196.688 318.956 198.144Z" fill="#263238"/>
<path d="M313.314 218.115C313.314 218.115 311.32 221.322 311.702 224.542C312.085 227.763 316.065 228.774 319.425 229.562C322.786 230.351 328.056 229.724 326.571 227.229C325.086 224.733 325.638 224.37 322.43 222.377C319.224 220.381 315.328 217.579 313.314 218.115Z" fill="#263238"/>
<path d="M329.426 252.372L327.067 265.935L393.408 244.706L386.036 229.079L329.426 252.372Z" fill="white" stroke="#263238" stroke-width="1.184" stroke-miterlimit="10"/>
<path d="M371.884 286.575C371.884 286.575 365.102 273.013 351.834 272.718C338.566 272.423 309.671 296.011 309.671 296.011C309.671 296.011 280.48 337.584 276.942 340.827C273.405 344.07 270.455 347.02 270.455 347.02L261.02 342.301C261.02 342.301 255.122 349.083 252.764 355.569C250.405 362.057 250.111 370.311 250.111 370.311C250.111 370.311 270.75 385.055 274.583 385.939C278.415 386.823 358.025 338.173 368.345 327.264C378.666 316.354 371.884 286.575 371.884 286.575Z" fill="white" stroke="#263238" stroke-width="1.184" stroke-miterlimit="10"/>
<path d="M355.754 318.817C357.51 318.066 359.162 317.248 360.68 316.355" stroke="#263238" stroke-width="1.184" stroke-miterlimit="10"/>
<path d="M297.287 326.969C297.287 326.969 329.093 327.834 350.817 320.669" stroke="#263238" stroke-width="1.184" stroke-miterlimit="10"/>
<path d="M314.093 334.635C314.093 334.635 328.245 334.93 340.63 329.328" stroke="#263238" stroke-width="1.184" stroke-miterlimit="10"/>
<path d="M264.89 373.519C266.549 375.104 268.097 375.619 268.097 375.619" stroke="#263238" stroke-width="1.184" stroke-miterlimit="10"/>
<path d="M270.455 347.02C270.455 347.02 260.136 356.455 261.02 365.006C261.241 367.143 261.794 368.875 262.499 370.271" stroke="#263238" stroke-width="1.184" stroke-miterlimit="10"/>
<path d="M264.852 348.789C264.852 348.789 254.238 359.108 256.891 366.185" stroke="#263238" stroke-width="1.184" stroke-miterlimit="10"/>
<path d="M255.572 343L226.935 324.264C226.935 324.264 226.4 317.574 225.865 315.968C225.329 314.363 221.047 306.333 220.779 303.389C220.512 300.446 221.314 297.769 219.174 297.769C217.033 297.769 215.159 299.374 214.891 302.051C214.624 304.727 214.624 304.727 214.624 304.727C214.624 304.727 204.186 311.418 203.918 313.292C203.65 315.165 204.988 323.463 205.523 325.604C206.059 327.744 208.2 333.632 213.821 336.309C219.441 338.985 240.318 359.594 240.318 359.594L255.572 343Z" fill="white" stroke="#263238" stroke-width="1.184" stroke-miterlimit="10"/>
<path d="M266.032 342.596C266.032 342.596 258.071 338.764 255.122 338.764C252.174 338.764 237.136 359.698 236.841 360.877C236.547 362.057 241.853 373.556 242.444 374.44C243.034 375.324 251.29 377.683 251.29 377.683L253.943 373.85C253.943 373.85 251.29 368.544 254.533 358.812C257.776 349.082 264.852 344.955 264.852 344.955L266.032 342.596Z" fill="white" stroke="#263238" stroke-width="1.184" stroke-miterlimit="10"/>
<path d="M214.622 304.727L216.763 310.883L211.143 316.771" fill="white"/>
<path d="M214.622 304.727L216.763 310.883L211.143 316.771" stroke="#263238" stroke-width="1.184" stroke-miterlimit="10"/>
<path d="M453.503 399.461C456.486 400.765 463.783 400.6 463.789 400.6C463.865 400.599 462.221 395.823 462.082 395.534C460.481 392.185 455.417 386.654 451.297 387.211C448.329 387.612 446.678 390.583 447.348 393.377C448.034 396.23 450.962 398.351 453.503 399.461Z" fill="#263238"/>
<path d="M456.021 420.599C459.116 421.05 465.629 419.162 466.147 419.009C467.176 422.655 468.525 426.313 470.096 429.939C470.992 432.013 471.959 434.074 472.955 436.129C472.36 435.258 471.823 434.485 471.736 434.385C469.307 431.576 462.963 427.58 459.136 429.206C456.379 430.377 455.572 433.677 456.955 436.196C458.368 438.768 461.754 440.041 464.497 440.44C467.282 440.846 472.867 439.347 474.34 438.93C474.731 439.714 475.111 440.501 475.504 441.284C477.39 445.04 479.288 448.779 481.038 452.502C481.655 453.814 482.215 455.13 482.779 456.444C482.251 455.671 481.799 455.025 481.72 454.933C479.29 452.126 472.946 448.129 469.12 449.754C466.362 450.925 465.555 454.226 466.939 456.745C468.354 459.316 471.738 460.589 474.481 460.988C477.138 461.375 482.305 460.038 484.057 459.552C484.595 460.915 485.136 462.279 485.595 463.624C485.888 464.549 486.236 465.42 486.477 466.366C486.738 467.298 486.995 468.219 487.249 469.132C487.675 470.908 488.126 472.738 488.498 474.481C488.766 475.692 488.999 476.85 489.237 478.016C488.638 476.703 487.411 474.156 487.283 473.955C485.309 470.812 479.643 465.9 475.614 466.927C472.712 467.667 471.413 470.807 472.401 473.505C473.408 476.262 476.56 478.032 479.212 478.843C482.132 479.734 488.596 478.92 489.403 478.812C489.79 480.743 490.149 482.626 490.459 484.408C491.152 488.34 491.675 491.863 492.073 494.847H494.798C494.323 491.76 493.702 488.084 492.88 483.955C492.495 481.992 492.044 479.902 491.56 477.762C492.047 477.569 494.803 476.453 497.246 475.088C499.373 477.392 504.826 480.089 505.532 480.433C504.791 482.259 504.05 484.025 503.327 485.683C501.819 489.153 500.387 492.23 499.122 494.848H502.069C503.156 492.435 504.351 489.687 505.596 486.642C506.358 484.792 507.134 482.8 507.912 480.748C508.694 480.911 515.093 482.211 518.076 481.538C520.78 480.925 524.056 479.396 525.267 476.722C526.453 474.104 525.392 470.877 522.551 469.922C518.611 468.599 512.595 473.074 510.39 476.063C510.26 476.239 509.063 478.309 508.329 479.627C508.643 478.786 508.957 477.974 509.268 477.105C509.898 475.39 510.474 473.66 511.102 471.803C511.373 470.895 511.648 469.977 511.925 469.051C512.218 468.138 512.414 467.137 512.665 466.172C513.201 463.921 513.635 461.614 514.019 459.282C515.522 459.829 520.885 461.695 523.664 461.499C526.43 461.305 529.9 460.289 531.501 457.829C533.07 455.421 532.51 452.069 529.848 450.695C526.153 448.79 519.528 452.303 516.896 454.922C516.732 455.085 515.055 457.177 514.157 458.343C514.377 456.939 514.604 455.538 514.781 454.11C515.292 449.987 515.682 445.8 516.089 441.622C516.213 440.343 516.352 439.07 516.486 437.795C517.018 437.995 523.346 440.351 526.458 440.132C529.224 439.938 532.695 438.922 534.295 436.461C535.864 434.053 535.304 430.701 532.642 429.329C528.947 427.423 522.324 430.937 519.692 433.555C519.494 433.752 517.085 436.765 516.51 437.561C516.808 434.753 517.129 431.956 517.558 429.213C518.144 425.428 518.931 421.744 519.955 418.234C520.202 418.327 526.796 420.816 529.983 420.592C532.75 420.398 536.219 419.381 537.821 416.922C539.39 414.514 538.83 411.162 536.167 409.789C532.472 407.883 525.849 411.397 523.217 414.016C523.011 414.222 520.421 417.465 519.993 418.086C520.054 417.877 520.094 417.654 520.158 417.446C521.3 413.712 522.874 410.237 524.507 407.057C525.453 405.206 526.461 403.491 527.478 401.844C528.658 402.433 534.083 405.066 536.974 405.183C539.744 405.293 543.306 404.664 545.167 402.395C546.99 400.174 546.802 396.781 544.307 395.123C540.843 392.823 533.874 395.587 530.971 397.902C530.813 398.028 529.35 399.485 528.3 400.561C528.77 399.825 529.241 399.057 529.706 398.36C531.445 395.741 533.199 393.449 534.769 391.433C535.671 390.294 536.508 389.28 537.303 388.341C538.763 388.315 544.646 388.136 547.218 386.93C549.726 385.751 552.598 383.552 553.205 380.681C553.799 377.869 552.068 374.944 549.091 374.623C544.957 374.178 540.045 379.843 538.534 383.235C538.404 383.528 536.889 388.347 536.965 388.346C536.965 388.346 537.036 388.345 537.054 388.345C536.271 389.233 535.443 390.194 534.558 391.263C532.941 393.25 531.133 395.509 529.33 398.101C527.52 400.687 525.628 403.546 523.908 406.737C522.178 409.935 520.523 413.386 519.277 417.163C519.263 417.206 519.254 417.252 519.24 417.295C519.261 416.077 519.208 412.669 519.173 412.408C518.696 408.726 515.611 401.892 511.521 401.137C508.577 400.592 506.082 402.9 505.846 405.765C505.607 408.691 507.728 411.618 509.796 413.466C512.129 415.55 518.603 417.567 519.118 417.726C517.963 421.333 517.073 425.129 516.383 429.02C515.986 431.245 515.656 433.497 515.353 435.76C515.337 434.707 515.316 433.764 515.298 433.633C514.821 429.951 511.735 423.118 507.646 422.361C504.7 421.817 502.205 424.124 501.972 426.988C501.732 429.914 503.854 432.841 505.921 434.689C508.02 436.563 513.504 438.395 514.962 438.86C514.855 439.729 514.738 440.597 514.635 441.466C514.137 445.639 513.657 449.805 513.062 453.876C512.853 455.311 512.594 456.716 512.34 458.123C512.326 457.187 512.305 456.4 512.29 456.28C511.812 452.598 508.727 445.765 504.639 445.009C501.693 444.465 499.198 446.772 498.964 449.637C498.723 452.561 500.845 455.49 502.913 457.337C504.916 459.126 509.963 460.861 511.693 461.421C511.39 462.854 511.088 464.29 510.729 465.666C510.463 466.6 510.271 467.517 509.952 468.439C509.655 469.359 509.361 470.271 509.07 471.172C508.445 472.888 507.812 474.663 507.16 476.323C506.716 477.481 506.271 478.576 505.826 479.68C506.051 478.254 506.432 475.453 506.437 475.216C506.494 472.75 505.619 468.741 503.875 465.922C503.885 465.557 503.864 465.195 503.807 464.834C503.352 461.996 500.685 459.888 497.79 460.66C493.773 461.729 491.225 468.782 491.034 472.489C491.024 472.708 491.166 475.095 491.282 476.599C491.079 475.725 490.893 474.874 490.674 473.978C490.253 472.2 489.781 470.44 489.28 468.543C489.005 467.636 488.728 466.72 488.447 465.794C488.189 464.87 487.8 463.928 487.476 462.984C486.682 460.812 485.771 458.648 484.805 456.49C486.361 456.117 491.863 454.714 494.074 453.019C496.274 451.331 498.607 448.568 498.586 445.634C498.566 442.76 496.251 440.273 493.272 440.596C489.139 441.045 485.551 447.629 484.801 451.265C484.754 451.492 484.509 454.161 484.403 455.63C483.812 454.337 483.228 453.043 482.589 451.755C480.742 448.034 478.756 444.326 476.792 440.617C476.189 439.482 475.603 438.343 475.011 437.206C475.567 437.079 482.144 435.553 484.619 433.654C486.819 431.966 489.153 429.205 489.132 426.27C489.11 423.396 486.796 420.908 483.818 421.233C479.685 421.682 476.097 428.266 475.348 431.902C475.291 432.177 474.944 436.017 474.904 436.999C473.602 434.494 472.327 431.984 471.172 429.458C469.573 425.976 468.196 422.472 467.113 418.978C467.372 418.919 474.243 417.358 476.779 415.412C478.979 413.724 481.313 410.963 481.291 408.028C481.271 405.154 478.955 402.668 475.977 402.991C471.844 403.44 468.257 410.024 467.507 413.66C467.448 413.945 467.077 418.079 467.063 418.833C466.999 418.626 466.909 418.417 466.849 418.209C465.741 414.464 465.138 410.698 464.745 407.143C464.513 405.08 464.407 403.093 464.347 401.157C465.656 400.997 471.634 400.201 474.109 398.702C476.482 397.266 479.104 394.778 479.405 391.858C479.7 389 477.672 386.273 474.677 386.267C470.519 386.259 466.231 392.411 465.086 395.941C465.023 396.133 464.606 398.156 464.324 399.633C464.31 398.759 464.279 397.857 464.284 397.02C464.29 393.877 464.489 390.997 464.686 388.449C464.809 387.001 464.95 385.694 465.095 384.473C466.298 383.646 471.106 380.252 472.585 377.826C474.029 375.458 475.209 372.041 474.132 369.311C473.077 366.637 470.02 365.153 467.359 366.528C463.665 368.438 462.694 375.873 463.304 379.535C463.357 379.851 464.752 384.705 464.816 384.664C464.816 384.664 464.875 384.624 464.888 384.614C464.726 385.786 464.565 387.046 464.418 388.424C464.165 390.973 463.903 393.855 463.83 397.012C463.748 400.166 463.747 403.595 464.072 407.206C464.394 410.827 464.916 414.619 465.961 418.456C465.973 418.5 465.99 418.544 466.002 418.587C465.347 417.559 463.422 414.747 463.251 414.548C460.822 411.741 454.478 407.744 450.65 409.368C447.894 410.539 447.085 413.84 448.471 416.358C449.894 418.928 453.278 420.199 456.021 420.599Z" fill="#263238"/>
<path d="M527.317 401.067C527.381 401.107 528.644 396.217 528.688 395.9C529.199 392.222 528.027 384.817 524.283 383.007C521.586 381.705 518.572 383.271 517.589 385.973C516.585 388.731 517.858 392.115 519.365 394.442C521.134 397.175 527.312 401.063 527.317 401.067Z" fill="#263238"/>
<path d="M517.952 509.923L519.218 489.661H474.416L475.684 509.923H517.952Z" fill="#263238"/>
<path d="M18.8528 509.691H565.515" stroke="#263238" stroke-width="1.184" stroke-miterlimit="10"/>
</svg>
